<svg width="120" height="25" viewBox="0 0 120 25" fill="none" xmlns="http://www.w3.org/2000/svg">
<g id="Layer 1">
<path id="Vector" d="M73.7364 14.7239C74.1806 12.8853 74.6351 11.0468 75.0794 9.20824C75.7194 6.54157 76.3526 3.87143 76.9789 1.19782C77.0913 0.72907 77.2802 0.515528 77.796 0.531153C79.1338 0.57282 80.4768 0.562403 81.8198 0.531153C81.9099 0.512272 82.0029 0.51346 82.0924 0.534638C82.182 0.555816 82.266 0.596483 82.3388 0.653855C82.4115 0.711228 82.4712 0.783952 82.5139 0.86705C82.5565 0.950149 82.581 1.04166 82.5857 1.13532C83.5151 5.23949 84.47 9.33324 85.4198 13.4322C85.5135 13.8963 85.661 14.3473 85.8589 14.7759C86.8087 10.0572 87.7177 5.33844 88.6572 0.588445H93.7636C93.59 1.30719 93.4368 1.99469 93.253 2.67178C91.7925 8.35928 90.3168 14.0468 88.8768 19.7395C88.7338 20.302 88.5398 20.5416 87.927 20.5259C86.2623 20.4791 84.5925 20.5259 82.8564 20.5259C81.8351 16.2134 80.8138 11.9235 79.7926 7.65615H79.6598L77.796 15.1822C77.3977 16.7968 77.0096 18.4218 76.5806 20.0312C76.5372 20.1439 76.4684 20.2446 76.3796 20.3252C76.2909 20.4057 76.1848 20.4638 76.07 20.4947C74.4257 20.5294 72.7815 20.5294 71.1372 20.4947C71.0163 20.4745 70.9019 20.4246 70.804 20.3493C70.7062 20.274 70.6278 20.1755 70.5755 20.0624C68.9721 13.7187 67.3857 7.37838 65.8164 1.04157C65.7857 0.921778 65.7755 0.79157 65.75 0.614486H70.8564C71.7687 5.30893 72.6862 10.0068 73.6087 14.7082L73.7364 14.7239Z" fill="white"/>
<path id="Vector_2" d="M28.2894 9.09896V20.4479H23.52V0.546881C25.3226 0.546881 27.0945 0.546881 28.8511 0.578131C29.0349 0.578131 29.28 0.947922 29.3617 1.19271C31.0128 5.27605 32.6502 9.36633 34.2741 13.4635C34.366 13.6927 34.4783 13.9115 34.6519 14.2969C35.2085 12.9219 35.709 11.6927 36.1838 10.4688C37.4298 7.39063 38.6502 4.32292 39.8298 1.23438C39.8722 1.0098 39.9976 0.81044 40.1801 0.677605C40.3626 0.544769 40.5882 0.488637 40.8102 0.520839C42.429 0.562506 44.0477 0.520839 45.7226 0.520839V20.4479H40.9941V9.0625L40.8204 9.02605C40.6366 9.50521 40.4426 9.98438 40.2638 10.4688C39.1098 13.5938 37.9558 16.7188 36.8273 19.8438C36.791 20.0563 36.6743 20.2458 36.5024 20.3714C36.3305 20.4971 36.1171 20.5489 35.9081 20.5156C35.0474 20.4714 34.185 20.4714 33.3243 20.5156C33.1291 20.548 32.9292 20.502 32.7665 20.3875C32.6037 20.2729 32.4907 20.0986 32.4511 19.901C31.2051 16.4583 29.9234 13.026 28.657 9.58855C28.5907 9.40626 28.509 9.23438 28.4375 9.06771L28.2894 9.09896Z" fill="white"/>
<path id="Vector_3" d="M101.055 13.0574V20.448H96.2861V0.661523C96.3423 0.630273 96.3832 0.578189 96.424 0.578189C99.4317 0.578189 102.45 0.432356 105.452 0.609439C109.925 0.869856 112.519 4.68756 111.202 8.85423C110.954 9.62895 110.541 10.3385 109.994 10.9325C109.447 11.5266 108.778 11.9906 108.036 12.2917L107.183 12.6615L111.672 20.5157C109.838 20.5157 108.174 20.5157 106.514 20.5157C106.325 20.5157 106.09 20.198 105.968 19.9949C104.819 17.9115 103.66 15.8282 102.577 13.7084C102.21 12.9949 101.755 12.9219 101.045 13.1094L101.055 13.0574ZM101.076 9.55736C102.245 9.55736 103.328 9.58861 104.415 9.55736C104.708 9.5622 104.998 9.50754 105.27 9.39658C105.541 9.28561 105.788 9.12056 105.997 8.91108C106.205 8.70159 106.37 8.45187 106.483 8.17651C106.595 7.90115 106.653 7.60568 106.652 7.30736C106.744 5.92715 106.039 4.85423 104.722 4.70319C103.519 4.61292 102.312 4.58684 101.107 4.62506L101.076 9.55736Z" fill="white"/>
<path id="Vector_4" d="M49.2715 0.583226C52.3353 0.583226 55.2715 0.458226 58.2179 0.614476C61.343 0.781143 63.3957 2.60406 64.0596 5.43739C64.282 6.31435 64.314 7.2303 64.1532 8.12117C63.9924 9.01204 63.6427 9.85632 63.1287 10.595C62.6146 11.3336 61.9485 11.9488 61.177 12.3975C60.4055 12.8462 59.5472 13.1175 58.6621 13.1926C57.1608 13.328 55.6391 13.1926 54.0664 13.1926V20.4426H49.2715V0.583226ZM54.0408 9.58323C55.3013 9.54537 56.559 9.44281 57.8094 9.27593C58.8306 9.08323 59.3413 8.20302 59.3413 6.99468C59.3413 5.78635 58.8817 4.85927 57.8808 4.67698C56.614 4.50332 55.339 4.399 54.0613 4.36448L54.0408 9.58323Z" fill="white"/>
<path id="Vector_5" d="M116.753 15.4636C118.392 15.4636 119.576 16.599 119.571 18.1407C119.566 19.6824 118.336 20.7761 116.701 20.7449C115.067 20.7136 113.873 19.599 113.873 18.0886C113.873 16.5782 115.103 15.4532 116.742 15.4845" fill="white"/>
<path id="Vector_6" d="M3.70213 0.536377H21.4774L17.903 5.06763H18.1072H9.94723H0L3.70213 0.536377Z" fill="white"/>
<path id="Vector_7" d="M3.70723 8.25H21.4774L17.903 12.7865H0L3.70723 8.25Z" fill="white"/>
<path id="Vector_8" d="M3.70723 15.8386H21.4774L17.903 20.3751H0L3.70723 15.8386Z" fill="white"/>
<path id="Vector_9" d="M7.31738 24.5522L13.5676 19.0522H7.34291L7.31738 24.5522Z" fill="white"/>
</g>
</svg>
